<svg xmlns="http://www.w3.org/2000/svg" viewBox="0 0 640 150" width="640" height="150">
<g transform="translate(4,6) scale(0.106)"><path d="M0 0 C0.03 2.29 0.05 4.58 0.06 6.88 C0.07 8.15 0.09 9.43 0.1 10.74 C0 14 0 14 -1 16 C-1.2 18 -1.37 20 -1.5 22 C-1.89 27.78 -1.89 27.78 -3 30 C-3.2 31.66 -3.36 33.33 -3.5 35 C-3.89 39.78 -3.89 39.78 -5 42 C-5.2 43.66 -5.36 45.33 -5.5 47 C-5.89 51.78 -5.89 51.78 -7 54 C-7.2 56 -7.37 58 -7.5 60 C-7.89 65.78 -7.89 65.78 -9 68 C-9.2 69.66 -9.36 71.33 -9.5 73 C-9.89 77.78 -9.89 77.78 -11 80 C-11.2 81.66 -11.36 83.33 -11.5 85 C-11.89 89.78 -11.89 89.78 -13 92 C-13.2 94 -13.37 96 -13.5 98 C-13.89 103.78 -13.89 103.78 -15 106 C-15.2 107.66 -15.36 109.33 -15.5 111 C-15.89 115.78 -15.89 115.78 -17 118 C-17.2 119.66 -17.36 121.33 -17.5 123 C-17.89 127.78 -17.89 127.78 -19 130 C-19.2 132 -19.37 134 -19.5 136 C-19.89 141.78 -19.89 141.78 -21 144 C-21.2 145.66 -21.36 147.33 -21.5 149 C-21.89 153.78 -21.89 153.78 -23 156 C-23.2 158 -23.37 160 -23.5 162 C-23.89 167.78 -23.89 167.78 -25 170 C-25.2 172 -25.37 174 -25.5 176 C-25.89 181.78 -25.89 181.78 -27 184 C-27.2 185.66 -27.36 187.33 -27.5 189 C-27.89 193.78 -27.89 193.78 -29 196 C-29.23 198.37 -29.41 200.75 -29.56 203.12 C-29.65 204.41 -29.73 205.69 -29.82 207.01 C-29.85 207.5 -29.85 207.5 -30 210 C-30.99 210.33 -31.98 210.66 -33 211 C-37.13 208.64 -40.41 205.82 -43.73 202.45 C-44.17 202 -44.17 202 -46.41 199.74 C-46.88 199.26 -47.34 198.79 -47.82 198.3 C-49.28 196.81 -50.75 195.33 -52.22 193.84 C-56.4 189.62 -60.56 185.39 -64.73 181.16 C-67.28 178.56 -69.84 175.97 -72.41 173.38 C-73.38 172.4 -74.35 171.41 -75.32 170.42 C-76.67 169.04 -78.03 167.67 -79.4 166.29 C-80.17 165.51 -80.94 164.73 -81.73 163.92 C-84.08 161.93 -86.1 160.96 -89 160 C-93.57 163.62 -96.88 167.01 -100 172 C-101.21 173.47 -102.43 174.93 -103.66 176.38 C-105.11 178.13 -106.46 179.93 -107.81 181.75 C-110.14 184.89 -112.55 187.95 -115 191 C-117.39 193.96 -119.73 196.94 -122 200 C-124.92 203.94 -127.99 207.74 -131.06 211.56 C-132.75 213.68 -134.39 215.83 -136 218 C-140.2 223.65 -144.66 229.1 -149.08 234.58 C-152.11 238.35 -155.12 242.12 -158 246 C-162.2 251.65 -166.66 257.1 -171.08 262.58 C-174.11 266.35 -177.12 270.12 -180 274 C-183.54 278.77 -187.28 283.38 -191 288 C-192.33 289.67 -193.67 291.33 -195 293 C-197.02 295.53 -199.04 298.05 -201.07 300.57 C-204.61 304.97 -208.07 309.4 -211.44 313.94 C-213.91 317.2 -216.5 320.37 -219.06 323.56 C-220.75 325.68 -222.39 327.83 -224 330 C-227.54 334.77 -231.28 339.38 -235 344 C-236.33 345.67 -237.67 347.33 -239 349 C-249.67 362.33 -260.33 375.67 -271 389 C-271.66 389.82 -272.31 390.64 -272.99 391.49 C-274.35 393.19 -275.71 394.88 -277.07 396.57 C-280.1 400.34 -283.11 404.12 -286 408 C-290.62 414.21 -295.43 420.27 -300.56 426.06 C-303.64 429.53 -306.5 433.14 -309.32 436.82 C-311.19 439.24 -313.09 441.62 -315 444 C-315.61 444.77 -316.23 445.53 -316.86 446.32 C-343 479 -343 479 -345 481.49 C-346.35 483.18 -347.69 484.87 -349.04 486.57 C-352.13 490.48 -355.25 494.33 -358.56 498.06 C-362.25 502.22 -365.62 506.59 -369 511 C-371.35 514.01 -373.78 516.9 -376.31 519.75 C-380.07 524.02 -383.54 528.49 -387 533 C-389.35 536.01 -391.78 538.9 -394.31 541.75 C-397.47 545.33 -400.42 549.04 -403.32 552.82 C-405.19 555.24 -407.09 557.62 -409 560 C-409.63 560.79 -410.25 561.58 -410.89 562.39 C-414.04 566.36 -417.2 570.28 -420.56 574.06 C-424.25 578.22 -427.62 582.59 -431 587 C-433.35 590.01 -435.78 592.9 -438.31 595.75 C-442.07 600.02 -445.54 604.49 -449 609 C-451.35 612.01 -453.78 614.9 -456.31 617.75 C-459.47 621.34 -462.41 625.06 -465.32 628.85 C-467.27 631.35 -469.33 633.74 -471.41 636.12 C-473.3 638.36 -475.12 640.64 -476.94 642.94 C-479.41 646.05 -481.92 649.09 -484.56 652.06 C-487.65 655.54 -490.49 659.16 -493.32 662.84 C-496.29 666.65 -499.47 670.28 -502.68 673.89 C-507.01 678.77 -511.04 683.83 -515 689 C-517.35 692.01 -519.78 694.9 -522.31 697.75 C-526.07 702.02 -529.54 706.49 -533 711 C-535.35 714.01 -537.78 716.9 -540.31 719.75 C-544.07 724.02 -547.54 728.49 -551 733 C-553.35 736.01 -555.78 738.9 -558.31 741.75 C-562.07 746.02 -565.54 750.49 -569 755 C-571.35 758.01 -573.78 760.9 -576.31 763.75 C-580.07 768.02 -583.54 772.49 -587 777 C-589.97 780.8 -593.1 784.42 -596.28 788.04 C-599.94 792.22 -603.42 796.52 -606.88 800.88 C-609.37 804.01 -611.9 807.07 -614.56 810.06 C-617.65 813.54 -620.49 817.16 -623.32 820.84 C-626.29 824.65 -629.47 828.28 -632.68 831.89 C-636.4 836.09 -639.9 840.4 -643.32 844.84 C-646.29 848.65 -649.47 852.28 -652.68 855.89 C-656.4 860.09 -659.89 864.39 -663.3 868.83 C-665.34 871.43 -667.48 873.93 -669.64 876.43 C-671.49 878.57 -673.25 880.78 -675 883 C-679.07 881.63 -681.63 879.8 -684.75 876.88 C-685.62 876.07 -686.49 875.27 -687.38 874.44 C-688.25 873.63 -689.11 872.83 -690 872 C-691.54 870.62 -693.08 869.24 -694.62 867.88 C-695.36 867.22 -696.1 866.57 -696.86 865.89 C-697.57 865.27 -698.27 864.64 -699 864 C-699.32 863.71 -699.32 863.71 -700.95 862.26 C-704.71 858.94 -708.54 855.73 -712.44 852.56 C-716.68 849.11 -720.81 845.56 -724.88 841.9 C-726.94 840.05 -729.03 838.24 -731.12 836.44 C-733.7 834.2 -736.13 831.89 -738.5 829.44 C-741.42 826.46 -744.53 824.04 -747.9 821.59 C-751.01 819.23 -753.88 816.63 -756.77 814.01 C-758.87 812.12 -760.99 810.28 -763.12 808.44 C-765.7 806.2 -768.13 803.89 -770.5 801.44 C-772.84 799.05 -775.22 797.02 -777.94 795.06 C-780.91 792.92 -783.45 790.63 -786 788 C-788.53 785.39 -791.05 783.12 -794 781 C-796.95 778.88 -799.47 776.61 -802 774 C-804.49 771.43 -806.96 769.2 -809.88 767.12 C-814.3 763.97 -817.9 760.13 -821.61 756.17 C-824.05 753.96 -825.95 753.12 -829 752 C-835.96 758.15 -842.67 764.51 -849.24 771.07 C-850.17 772 -851.1 772.93 -852.06 773.88 C-854.01 775.83 -855.96 777.77 -857.91 779.72 C-860.39 782.2 -862.88 784.68 -865.37 787.15 C-867.77 789.54 -870.16 791.93 -872.55 794.32 C-873.44 795.21 -874.33 796.09 -875.25 797 C-875.66 797.41 -875.66 797.41 -877.76 799.51 C-878.12 799.88 -878.12 799.88 -879.95 801.71 C-882 804 -882 804 -883.98 806.98 C-885.97 809.96 -888.06 812.29 -890.61 814.81 C-891.52 815.71 -892.43 816.61 -893.36 817.54 C-893.84 818.01 -894.32 818.48 -894.82 818.97 C-896.34 820.46 -897.85 821.96 -899.36 823.46 C-903.11 827.19 -906.87 830.9 -910.63 834.61 C-913.82 837.76 -917 840.91 -920.18 844.06 C-921.66 845.53 -923.15 847 -924.64 848.46 C-925.54 849.36 -926.45 850.26 -927.39 851.19 C-928.18 851.98 -928.98 852.76 -929.8 853.57 C-932.2 856.22 -934.03 859.03 -936 862 C-937.43 863.58 -938.91 865.13 -940.43 866.62 C-941.3 867.49 -942.17 868.35 -943.06 869.23 C-943.99 870.15 -944.92 871.06 -945.88 872 C-946.85 872.96 -947.82 873.93 -948.79 874.89 C-952.37 878.45 -955.97 881.99 -959.56 885.54 C-962.61 888.55 -965.65 891.55 -968.68 894.57 C-970.1 895.97 -971.52 897.37 -972.94 898.77 C-977.19 902.99 -980.69 907 -984 912 C-986.89 915.15 -989.95 918.13 -993 921.12 C-993.44 921.56 -993.44 921.56 -995.64 923.75 C-999.36 927.43 -1003.1 931.11 -1006.83 934.79 C-1009.56 937.48 -1012.28 940.18 -1015 942.88 C-1015.84 943.7 -1016.68 944.53 -1017.55 945.38 C-1018.34 946.16 -1019.13 946.94 -1019.94 947.74 C-1020.63 948.42 -1021.32 949.1 -1022.03 949.8 C-1025.2 953.34 -1027.59 957.32 -1030.04 961.39 C-1033.78 966.7 -1037.8 970.3 -1044.27 971.72 C-1053.69 972.78 -1063.15 972.54 -1072.61 972.32 C-1076.78 972.24 -1080.95 972.23 -1085.12 972.21 C-1092.99 972.17 -1100.87 972.07 -1108.74 971.94 C-1117.72 971.79 -1126.69 971.72 -1135.67 971.65 C-1154.11 971.52 -1172.56 971.29 -1191 971 C-1189.29 967.35 -1187.26 965.05 -1184.35 962.23 C-1183.43 961.32 -1182.51 960.41 -1181.55 959.48 C-1180.09 958.05 -1178.63 956.63 -1177.16 955.21 C-1175.74 953.82 -1174.33 952.43 -1172.91 951.04 C-1172.07 950.22 -1171.22 949.39 -1170.35 948.55 C-1168 946 -1168 946 -1166.24 943.24 C-1163.72 939.59 -1160.9 936.64 -1157.73 933.54 C-1157.12 932.92 -1156.5 932.31 -1155.86 931.67 C-1154.52 930.35 -1153.19 929.02 -1151.85 927.7 C-1149.72 925.6 -1147.61 923.49 -1145.49 921.39 C-1140.24 916.16 -1134.97 910.95 -1129.71 905.73 C-1125.26 901.32 -1120.81 896.9 -1116.36 892.48 C-1114.28 890.41 -1112.2 888.35 -1110.11 886.28 C-1108.83 885.01 -1107.55 883.74 -1106.27 882.46 C-1105.98 882.18 -1105.98 882.18 -1104.51 880.74 C-1101.17 877.39 -1098.62 873.97 -1096 870 C-1094.26 868.11 -1092.48 866.26 -1090.65 864.46 C-1090.13 863.94 -1089.61 863.42 -1089.07 862.89 C-1087.95 861.77 -1086.83 860.66 -1085.7 859.55 C-1083.91 857.79 -1082.13 856.02 -1080.35 854.25 C-1075.93 849.86 -1071.5 845.48 -1067.07 841.09 C-1063.33 837.39 -1059.58 833.67 -1055.84 829.95 C-1054.09 828.22 -1052.34 826.49 -1050.58 824.76 C-1049.5 823.69 -1048.43 822.62 -1047.35 821.54 C-1046.41 820.62 -1045.47 819.69 -1044.5 818.73 C-1041.98 815.98 -1040.06 813.11 -1038 810 C-1036.51 808.35 -1034.97 806.75 -1033.39 805.19 C-1032.48 804.29 -1031.57 803.39 -1030.64 802.46 C-1030.16 801.99 -1029.68 801.52 -1029.18 801.03 C-1027.66 799.54 -1026.15 798.04 -1024.64 796.54 C-1020.89 792.81 -1017.13 789.1 -1013.37 785.39 C-1010.18 782.24 -1007 779.09 -1003.82 775.94 C-1002.34 774.47 -1000.85 773 -999.36 771.54 C-998.46 770.64 -997.55 769.74 -996.61 768.81 C-995.82 768.02 -995.02 767.24 -994.2 766.43 C-991.8 763.78 -989.97 760.97 -988 758 C-986.69 756.54 -985.34 755.12 -983.94 753.74 C-983.15 752.96 -982.36 752.18 -981.55 751.38 C-980.71 750.55 -979.87 749.73 -979 748.88 C-978.56 748.44 -978.56 748.44 -976.36 746.25 C-972.64 742.57 -968.9 738.89 -965.17 735.21 C-962.44 732.52 -959.72 729.82 -957 727.12 C-956.16 726.3 -955.32 725.47 -954.45 724.62 C-953.66 723.84 -952.87 723.06 -952.06 722.26 C-951.72 721.92 -951.72 721.92 -949.97 720.2 C-948 718 -948 718 -946.08 715.08 C-943.87 711.8 -941.46 709.23 -938.65 706.46 C-938.13 705.94 -937.61 705.42 -937.07 704.89 C-935.95 703.77 -934.83 702.66 -933.7 701.55 C-931.91 699.79 -930.13 698.02 -928.35 696.25 C-923.93 691.86 -919.5 687.48 -915.07 683.09 C-911.33 679.39 -907.58 675.67 -903.84 671.95 C-902.09 670.22 -900.34 668.49 -898.58 666.76 C-897.5 665.69 -896.43 664.62 -895.35 663.54 C-894.41 662.62 -893.47 661.69 -892.5 660.73 C-890 658 -890 658 -888.02 655.02 C-885.78 651.66 -883.18 648.91 -880.31 646.09 C-879.76 645.53 -879.2 644.97 -878.63 644.4 C-876.8 642.58 -874.97 640.76 -873.14 638.95 C-871.87 637.68 -870.6 636.41 -869.32 635.14 C-865.99 631.81 -862.65 628.49 -859.3 625.16 C-855.89 621.77 -852.48 618.37 -849.07 614.97 C-842.38 608.31 -835.69 601.65 -829 595 C-828.01 595.33 -827.02 595.66 -826 596 C-825.97 596.31 -825.97 596.31 -825.81 597.88 C-825.54 598.58 -825.28 599.28 -825 600 C-824.28 600.26 -823.56 600.51 -822.81 600.77 C-819.15 602.37 -816.87 604.89 -814.19 607.75 C-810.3 611.78 -806.46 615.35 -801.86 618.58 C-798.96 620.8 -796.53 623.45 -793.99 626.07 C-792.12 627.88 -790.24 629.37 -788.12 630.88 C-784.74 633.3 -781.91 636.02 -779 639 C-776.13 641.94 -773.35 644.62 -770 647 C-765.67 650.08 -762.15 653.82 -758.45 657.62 C-755.77 660.22 -752.97 662.35 -749.93 664.51 C-747.01 666.76 -744.56 669.43 -741.99 672.07 C-740.12 673.88 -738.24 675.37 -736.12 676.88 C-732.74 679.3 -729.91 682.02 -727 685 C-723.53 688.55 -720.07 691.55 -716.03 694.42 C-712 697.56 -708.53 701.32 -705 705 C-700.47 704.48 -700.47 704.48 -698.44 702.39 C-698.2 702.04 -698.2 702.04 -697 700.25 C-693.34 695.2 -689.11 690.99 -684.62 686.69 C-681.19 683.37 -678.66 680 -676 676 C-673.6 673.37 -671 670.95 -668.42 668.5 C-665.96 666.11 -663.97 663.95 -662.06 661.06 C-659 656.52 -655.08 652.99 -651.13 649.21 C-647.53 645.7 -644.78 642.22 -642 638 C-639.6 635.37 -637 632.95 -634.42 630.5 C-631.96 628.11 -629.97 625.95 -628.06 623.06 C-625 618.52 -621.08 614.99 -617.13 611.21 C-614.42 608.57 -612.11 606.16 -610 603 C-606.98 598.47 -603.05 594.97 -599.13 591.21 C-596.44 588.59 -594.14 586.21 -592.06 583.06 C-588.68 578.04 -584.19 574.11 -579.84 569.92 C-575.99 566.15 -572.98 562.51 -570 558 C-567.18 554.94 -564.14 552.09 -561.13 549.21 C-558.42 546.57 -556.11 544.16 -554 541 C-550.98 536.47 -547.05 532.97 -543.13 529.21 C-540.42 526.57 -538.11 524.16 -536 521 C-532.98 516.47 -529.05 512.97 -525.13 509.21 C-521.53 505.7 -518.75 502.24 -516 498 C-513.97 495.95 -511.86 494.04 -509.71 492.12 C-507.39 489.24 -507.13 487.72 -507 484 C-508.11 480.67 -509.7 477.62 -511.32 474.51 C-511.78 473.6 -512.23 472.7 -512.7 471.77 C-514.16 468.88 -515.64 466 -517.12 463.12 C-518.1 461.2 -519.07 459.27 -520.05 457.34 C-520.99 455.48 -521.94 453.62 -522.88 451.76 C-523.32 450.9 -523.76 450.04 -524.21 449.16 C-526.57 444.57 -529.07 440.13 -531.87 435.79 C-533.85 432.65 -535.59 429.38 -537.38 426.12 C-540.89 419.8 -544.66 413.81 -549 408 C-549.51 407.31 -550.03 406.61 -550.55 405.9 C-552.03 403.92 -553.51 401.96 -555 400 C-555.47 399.37 -555.94 398.73 -556.43 398.08 C-565.59 385.73 -575.48 374.34 -586.34 363.47 C-587.94 361.88 -589.52 360.27 -591.11 358.67 C-596.44 353.31 -601.8 348.35 -608 344 C-608.89 343.28 -609.79 342.56 -610.71 341.82 C-618.2 335.82 -626.1 330.51 -634.12 325.25 C-635.22 324.53 -636.32 323.81 -637.45 323.07 C-644.14 318.71 -650.94 314.73 -658 311 C-659.19 310.34 -660.38 309.69 -661.57 309.02 C-667.09 305.98 -672.56 303.17 -678.46 300.96 C-680.85 300.06 -683.21 299.1 -685.57 298.14 C-691.19 295.89 -696.88 293.91 -702.62 292 C-703.67 291.65 -704.72 291.3 -705.8 290.94 C-714.13 288.21 -722.44 285.89 -731 284 C-731.46 283.89 -731.46 283.89 -733.77 283.36 C-739.34 282.14 -744.85 281.6 -750.53 281.25 C-753 281 -753 281 -755 280 C-757.67 279.79 -760.33 279.63 -763 279.5 C-770.73 279.14 -770.73 279.14 -773 278 C-774.41 277.91 -775.82 277.87 -777.23 277.87 C-778.11 277.87 -778.98 277.86 -779.88 277.86 C-780.83 277.86 -781.78 277.87 -782.75 277.87 C-783.72 277.87 -784.69 277.87 -785.69 277.86 C-787.74 277.86 -789.79 277.87 -791.84 277.87 C-794.99 277.87 -798.13 277.87 -801.28 277.86 C-803.27 277.86 -805.26 277.87 -807.25 277.87 C-808.2 277.87 -809.14 277.86 -810.12 277.86 C-810.99 277.86 -811.86 277.87 -812.77 277.87 C-813.54 277.87 -814.31 277.87 -815.1 277.87 C-817 278 -817 278 -819 279 C-822.41 279.26 -825.82 279.44 -829.23 279.61 C-834.8 279.9 -834.8 279.9 -837 281 C-838.46 281.16 -839.91 281.28 -841.38 281.38 C-846.32 281.83 -850.92 282.86 -855.71 284.13 C-857.96 284.73 -860.21 285.28 -862.48 285.8 C-880.55 290.03 -898.26 295.99 -915 304 C-916.01 304.47 -917.01 304.94 -918.05 305.43 C-934.71 313.28 -950.14 322.02 -965 333 C-965.67 333.5 -966.34 333.99 -967.03 334.5 C-970.75 337.26 -974.39 340.11 -978 343 C-978.9 343.71 -979.8 344.41 -980.72 345.14 C-989.76 352.28 -998.1 359.92 -1006.25 368.06 C-1007.13 368.93 -1008.02 369.81 -1008.93 370.71 C-1013.16 374.93 -1016.89 378.9 -1020 384 C-1021.1 385.32 -1022.22 386.61 -1023.38 387.88 C-1026.29 391.14 -1028.96 394.5 -1031.55 398.02 C-1032.48 399.29 -1033.43 400.55 -1034.39 401.79 C-1042.92 412.8 -1049.96 425 -1057 437 C-1057.36 437.6 -1057.72 438.21 -1058.08 438.83 C-1059.96 442.05 -1061.59 445.19 -1062.88 448.69 C-1064.33 452.47 -1066 456.03 -1067.88 459.62 C-1076.14 475.9 -1081.89 494.26 -1086 512 C-1086.52 514.04 -1087.04 516.08 -1087.56 518.12 C-1089.67 526.62 -1091.2 534.78 -1091.75 543.53 C-1092 546 -1092 546 -1093 548 C-1093.14 549.5 -1093.23 551 -1093.28 552.5 C-1093.32 553.39 -1093.36 554.27 -1093.39 555.19 C-1093.43 556.12 -1093.46 557.04 -1093.5 558 C-1093.57 559.83 -1093.64 561.67 -1093.72 563.5 C-1093.75 564.31 -1093.78 565.13 -1093.81 565.97 C-1094 568 -1094 568 -1095 570 C-1095.1 572.37 -1095.13 574.75 -1095.13 577.12 C-1095.13 577.83 -1095.13 578.53 -1095.14 579.25 C-1095.14 580.74 -1095.13 582.23 -1095.13 583.71 C-1095.13 585.99 -1095.13 588.27 -1095.14 590.55 C-1095.14 591.99 -1095.13 593.43 -1095.13 594.88 C-1095.13 595.53 -1095.13 595.53 -1095.13 598.87 C-1095 602 -1095 602 -1094 604 C-1093.86 605.5 -1093.77 607 -1093.72 608.5 C-1093.68 609.39 -1093.64 610.27 -1093.61 611.19 C-1093.54 613.06 -1093.46 614.94 -1093.39 616.81 C-1093.36 617.7 -1093.32 618.59 -1093.28 619.5 C-1093.25 620.31 -1093.22 621.13 -1093.19 621.97 C-1093 624 -1093 624 -1092 626 C-1091.84 627.79 -1091.72 629.58 -1091.62 631.38 C-1091.22 636.71 -1090.22 641.57 -1088.82 646.72 C-1087.87 650.54 -1087.18 654.37 -1086.5 658.25 C-1085.64 663.05 -1084.65 667.55 -1082.74 672.05 C-1081.81 674.49 -1081.27 676.95 -1080.69 679.5 C-1078.82 687.26 -1075.94 694.59 -1073 702 C-1072.79 702.54 -1072.79 702.54 -1071.71 705.27 C-1069.23 711.38 -1066.41 717.25 -1063.41 723.12 C-1062.1 725.79 -1060.99 728.47 -1059.94 731.25 C-1058.45 735.11 -1056.63 738.4 -1054.37 741.86 C-1052.72 744.44 -1051.19 747.08 -1049.69 749.75 C-1049.18 750.65 -1048.66 751.55 -1048.14 752.48 C-1047 755 -1047 755 -1047 759 C-1048.45 760.92 -1048.45 760.92 -1050.52 762.94 C-1051.28 763.7 -1052.05 764.46 -1052.84 765.25 C-1053.68 766.06 -1054.52 766.87 -1055.39 767.71 C-1056.25 768.56 -1057.1 769.4 -1057.99 770.27 C-1060.73 772.98 -1063.49 775.68 -1066.25 778.38 C-1068.99 781.06 -1071.74 783.76 -1074.47 786.45 C-1076.18 788.13 -1077.89 789.81 -1079.6 791.48 C-1080.38 792.24 -1081.16 793.01 -1081.97 793.8 C-1082.31 794.14 -1082.31 794.14 -1084.04 795.82 C-1086 798 -1086 798 -1087.92 800.92 C-1090.13 804.19 -1092.54 806.76 -1095.35 809.54 C-1095.87 810.06 -1096.39 810.58 -1096.93 811.11 C-1098.05 812.23 -1099.17 813.34 -1100.3 814.45 C-1102.09 816.21 -1103.87 817.98 -1105.65 819.75 C-1110.07 824.14 -1114.5 828.52 -1118.93 832.91 C-1122.67 836.61 -1126.42 840.33 -1130.16 844.05 C-1131.91 845.78 -1133.66 847.51 -1135.42 849.24 C-1136.5 850.31 -1137.57 851.38 -1138.65 852.46 C-1139.59 853.38 -1140.53 854.31 -1141.5 855.27 C-1144.02 858.02 -1145.98 860.87 -1148 864 C-1149.5 865.6 -1151.04 867.17 -1152.62 868.69 C-1155.12 871.08 -1157.07 873.11 -1159 876 C-1160.32 876 -1161.64 876 -1163 876 C-1163.68 874.89 -1164.36 873.77 -1165.06 872.62 C-1167.06 869.42 -1169.17 866.32 -1171.38 863.25 C-1174.67 858.59 -1177.54 853.76 -1180.38 848.81 C-1181.73 846.47 -1183.12 844.16 -1184.56 841.88 C-1195.32 824.82 -1205.97 807.03 -1213.15 788.13 C-1213.95 786.13 -1214.86 784.28 -1215.88 782.38 C-1218.87 776.54 -1220.95 770.3 -1223.2 764.15 C-1223.99 762.03 -1224.8 759.93 -1225.61 757.83 C-1228.28 750.95 -1230.58 744.16 -1232.23 736.95 C-1233.07 733.74 -1234.19 730.73 -1235.38 727.62 C-1238.64 718.79 -1240.47 709.65 -1242.46 700.46 C-1243.14 697.37 -1243.9 694.31 -1244.69 691.25 C-1246.64 683.54 -1248.14 675.97 -1248.75 668.03 C-1249 666 -1249 666 -1250 664 C-1250.32 660.92 -1250.51 657.84 -1250.72 654.75 C-1251 652 -1251 652 -1252 650 C-1252.26 646.59 -1252.44 643.18 -1252.61 639.77 C-1252.9 634.2 -1252.9 634.2 -1254 632 C-1254.14 630.07 -1254.23 628.13 -1254.28 626.19 C-1254.32 625.03 -1254.36 623.87 -1254.39 622.68 C-1254.46 620.23 -1254.54 617.77 -1254.61 615.32 C-1254.64 614.16 -1254.68 613.01 -1254.72 611.81 C-1254.73 611.28 -1254.73 611.28 -1254.81 608.58 C-1255 606 -1255 606 -1256 604 C-1256.1 601.18 -1256.14 598.38 -1256.13 595.56 C-1256.13 594.73 -1256.13 593.89 -1256.14 593.03 C-1256.14 591.26 -1256.13 589.49 -1256.13 587.72 C-1256.13 585.01 -1256.13 582.3 -1256.14 579.59 C-1256.14 577.87 -1256.13 576.15 -1256.13 574.44 C-1256.13 573.62 -1256.14 572.81 -1256.14 571.97 C-1256.11 566.23 -1256.11 566.23 -1255 564 C-1254.86 562.07 -1254.77 560.13 -1254.72 558.19 C-1254.68 557.03 -1254.64 555.87 -1254.61 554.68 C-1254.57 553.47 -1254.54 552.25 -1254.5 551 C-1254.43 548.6 -1254.36 546.21 -1254.28 543.81 C-1254.25 542.75 -1254.22 541.68 -1254.19 540.58 C-1254 538 -1254 538 -1253 536 C-1252.79 533.67 -1252.63 531.34 -1252.5 529 C-1252.11 522.22 -1252.11 522.22 -1251 520 C-1250.8 518.34 -1250.64 516.67 -1250.5 515 C-1250.11 510.22 -1250.11 510.22 -1249 508 C-1248.84 506.54 -1248.72 505.09 -1248.62 503.62 C-1248.18 498.82 -1247.18 494.36 -1245.94 489.7 C-1244.98 485.93 -1244.14 482.13 -1243.31 478.33 C-1237.72 452.89 -1229.66 427.77 -1219 404 C-1218.34 402.38 -1217.7 400.75 -1217.06 399.12 C-1212.78 388.37 -1208.03 377.87 -1202.88 367.5 C-1202.47 366.68 -1202.06 365.85 -1201.64 365 C-1199.37 360.49 -1196.93 356.19 -1194.21 351.94 C-1192.21 348.74 -1190.44 345.43 -1188.62 342.12 C-1185.64 336.75 -1182.51 331.62 -1178.89 326.64 C-1175.99 322.59 -1173.28 318.43 -1170.55 314.26 C-1168.19 310.69 -1165.72 307.31 -1163 304 C-1162.08 302.78 -1161.16 301.55 -1160.25 300.31 C-1155.04 293.34 -1149.59 286.6 -1143.81 280.11 C-1142.06 278.07 -1140.46 275.99 -1138.86 273.84 C-1134.88 268.71 -1130.45 264.16 -1125.85 259.58 C-1124.99 258.72 -1124.13 257.86 -1123.24 256.97 C-1121.44 255.17 -1119.63 253.36 -1117.82 251.56 C-1115.07 248.82 -1112.32 246.06 -1109.58 243.31 C-1107.82 241.54 -1106.05 239.78 -1104.29 238.02 C-1103.47 237.2 -1102.66 236.39 -1101.83 235.55 C-1097.65 231.41 -1093.44 227.62 -1088.66 224.2 C-1086.51 222.65 -1084.57 220.92 -1082.62 219.12 C-1077.91 214.87 -1073.01 210.9 -1068 207 C-1067.15 206.34 -1066.31 205.67 -1065.44 204.99 C-1044.7 189.05 -1022.23 175.9 -999 164 C-997.97 163.47 -996.94 162.94 -995.88 162.39 C-983.13 155.83 -970.56 149.68 -957 145 C-955.33 144.35 -953.66 143.68 -952 143 C-942.17 139.04 -932.46 135.14 -922.11 132.78 C-918.43 131.86 -914.85 130.68 -911.25 129.5 C-905.13 127.52 -899.07 126.12 -892.73 125.03 C-888.63 124.32 -884.64 123.44 -880.62 122.38 C-876.06 121.18 -871.66 120.53 -866.96 120.21 C-865 120 -865 120 -863 119 C-859.92 118.68 -856.84 118.49 -853.75 118.28 C-851 118 -851 118 -849 117 C-847.5 116.86 -846 116.77 -844.5 116.72 C-843.61 116.68 -842.73 116.64 -841.81 116.61 C-839.94 116.54 -838.06 116.46 -836.19 116.39 C-835.3 116.36 -834.41 116.32 -833.5 116.28 C-832.69 116.25 -831.87 116.22 -831.03 116.19 C-829 116 -829 116 -827 115 C-824.73 114.9 -822.46 114.87 -820.2 114.87 C-819.5 114.87 -818.8 114.87 -818.08 114.87 C-815.76 114.86 -813.44 114.86 -811.12 114.87 C-809.52 114.87 -807.91 114.87 -806.31 114.86 C-802.94 114.86 -799.57 114.86 -796.2 114.87 C-791.87 114.88 -787.55 114.87 -783.22 114.87 C-779.91 114.86 -776.59 114.86 -773.27 114.87 C-771.67 114.87 -770.08 114.87 -768.48 114.86 C-766.26 114.86 -764.03 114.87 -761.8 114.87 C-760.54 114.87 -759.27 114.87 -757.96 114.87 C-755 115 -755 115 -753 116 C-750.33 116.21 -747.67 116.37 -745 116.5 C-737.27 116.86 -737.27 116.86 -735 118 C-732.67 118.21 -730.34 118.37 -728 118.5 C-721.22 118.89 -721.22 118.89 -719 120 C-717.54 120.16 -716.09 120.28 -714.62 120.38 C-709.82 120.82 -705.36 121.82 -700.7 123.06 C-696.92 124.02 -693.13 124.86 -689.32 125.69 C-667.33 130.52 -645.81 137.37 -625 146 C-623.29 146.67 -621.58 147.33 -619.88 148 C-616.19 149.47 -612.68 151.13 -609.17 152.95 C-606.94 154.03 -604.7 154.92 -602.39 155.8 C-596.98 157.94 -591.88 160.52 -586.75 163.25 C-585.83 163.74 -584.92 164.22 -583.97 164.72 C-555.42 179.91 -527.44 197.51 -503.23 219.07 C-500.83 221.15 -498.36 223.12 -495.88 225.11 C-490.22 229.73 -485.03 234.68 -479.88 239.86 C-478.97 240.76 -478.06 241.67 -477.13 242.6 C-475.23 244.49 -473.34 246.39 -471.45 248.29 C-469.03 250.72 -466.61 253.13 -464.19 255.55 C-461.85 257.87 -459.52 260.21 -457.19 262.54 C-456.76 262.97 -456.76 262.97 -454.57 265.15 C-450.53 269.23 -446.99 273.1 -444 278 C-442.71 279.37 -441.38 280.71 -440 282 C-436.8 285.12 -434.4 288.21 -432 292 C-429.08 295.88 -426.08 299.69 -423 303.44 C-419.83 307.5 -416.94 311.76 -414 316 C-413.45 316.77 -412.91 317.55 -412.34 318.34 C-405.28 328.35 -398.34 338.47 -392.16 349.05 C-391.16 350.73 -390.09 352.37 -389 354 C-388.34 354 -387.68 354 -387 354 C-385.62 352.6 -385.62 352.6 -384 350.62 C-380.35 346.31 -376.4 342.4 -372.33 338.49 C-370 336 -370 336 -368.14 333.13 C-365.03 328.57 -361.1 325.01 -357.13 321.21 C-354.42 318.57 -352.11 316.16 -350 313 C-346.98 308.47 -343.05 304.97 -339.13 301.21 C-336.47 298.61 -334.17 296.26 -332.12 293.12 C-328.38 287.61 -323.33 283.25 -318.55 278.63 C-312.4 272.6 -312.4 272.6 -310 269 C-306.34 263.51 -301.28 259.2 -296.55 254.63 C-292.46 250.62 -289.14 246.81 -286 242 C-283.18 238.94 -280.14 236.09 -277.13 233.21 C-274.49 230.63 -272.2 228.31 -270.19 225.19 C-266.07 219.19 -260.47 214.4 -255.27 209.34 C-250.93 205.09 -247.35 201.08 -244 196 C-240.33 192.07 -236.42 188.37 -232.55 184.63 C-228.46 180.62 -225.16 176.8 -222 172 C-218.75 168.5 -215.28 165.23 -211.84 161.92 C-208.95 159.1 -206.34 156.52 -204.12 153.12 C-200.05 147.14 -194.44 142.37 -189.27 137.34 C-184.93 133.09 -181.35 129.08 -178 124 C-174.33 120.07 -170.42 116.37 -166.55 112.63 C-162.47 108.63 -158.98 104.88 -156 100 C-155.34 99.34 -154.68 98.68 -154 98 C-154.3 92.55 -157.47 89.98 -161.16 86.38 C-161.78 85.76 -162.41 85.13 -163.05 84.49 C-164.37 83.18 -165.7 81.87 -167.03 80.56 C-169.04 78.58 -171.04 76.59 -173.04 74.59 C-174.33 73.31 -175.62 72.03 -176.91 70.75 C-177.5 70.17 -178.09 69.58 -178.7 68.97 C-182.32 65.43 -186.11 62.35 -190.2 59.35 C-192.4 57.7 -194.35 55.88 -196.28 53.91 C-196.98 53.21 -197.67 52.51 -198.39 51.79 C-199.09 51.07 -199.78 50.36 -200.5 49.62 C-200.86 49.26 -200.86 49.26 -202.7 47.39 C-204.47 45.6 -206.24 43.8 -208 42 C-207.67 41.01 -207.34 40.02 -207 39 C-206.43 38.9 -206.43 38.9 -203.57 38.38 C-202.09 38.11 -200.61 37.83 -199.12 37.56 C-198.75 37.5 -198.75 37.5 -196.86 37.15 C-191.23 36.11 -191.23 36.11 -189 35 C-187.54 34.84 -186.09 34.72 -184.62 34.62 C-180.61 34.27 -176.9 33.54 -173 32.5 C-169.3 31.52 -165.81 30.79 -162 30.5 C-158.36 30.21 -155.03 29.57 -151.5 28.62 C-145.38 26.99 -139.22 25.97 -132.97 25 C-127.19 24.1 -127.19 24.1 -125 23 C-123.54 22.84 -122.09 22.72 -120.62 22.62 C-116.78 22.27 -113.23 21.62 -109.5 20.62 C-103.6 19.06 -97.68 18.08 -91.65 17.13 C-86.22 16.26 -80.97 15.03 -75.66 13.62 C-72.29 12.83 -68.97 12.58 -65.53 12.3 C-62.76 11.97 -60.2 11.34 -57.5 10.62 C-52.36 9.26 -47.24 8.33 -42 7.5 C-36.93 6.7 -31.97 5.82 -27 4.5 C-21.85 3.13 -16.69 2.19 -11.44 1.31 C-10.65 1.18 -9.86 1.05 -9.05 0.91 C-6 0.42 -3.1 0 0 0 Z " fill="#388bfd" transform="translate(1336,81)"/><path d="M0 0 C0.66 0 1.32 0 2 0 C6.63 9.21 11.25 18.43 15.87 27.64 C18.02 31.93 20.17 36.21 22.32 40.48 C24.4 44.62 26.47 48.76 28.54 52.89 C29.33 54.47 30.12 56.04 30.91 57.61 C32.02 59.82 33.13 62.04 34.24 64.26 C34.4 64.57 34.4 64.57 35.22 66.19 C36.92 69.6 38.43 73.03 39.8 76.6 C41.95 82.01 44.46 87.2 47.08 92.41 C47.58 93.41 48.08 94.41 48.59 95.44 C50.25 98.76 51.91 102.09 53.57 105.41 C54.77 107.8 55.96 110.19 57.16 112.58 C60.06 118.39 62.96 124.2 65.87 130.01 C68.23 134.73 70.59 139.45 72.95 144.17 C73.29 144.84 73.62 145.52 73.97 146.21 C74.65 147.58 75.34 148.95 76.02 150.32 C82.43 163.13 88.84 175.94 95.25 188.75 C100.74 199.73 106.23 210.71 111.72 221.7 C118.1 234.47 124.48 247.24 130.87 260.01 C131.55 261.37 132.23 262.74 132.92 264.1 C133.25 264.77 133.59 265.44 133.93 266.13 C136.29 270.84 138.64 275.56 141 280.27 C143.87 286.02 146.75 291.77 149.62 297.51 C151.09 300.44 152.56 303.37 154.02 306.3 C155.61 309.48 157.2 312.66 158.79 315.84 C159.25 316.76 159.71 317.68 160.18 318.63 C163.53 325.29 167.14 331.64 171.69 337.56 C174.66 341.44 177.32 345.48 180 349.56 C183.38 354.69 186.82 359.49 191 364 C192.15 365.31 193.29 366.62 194.44 367.94 C195.62 369.29 196.81 370.65 198 372 C199.17 373.33 200.33 374.67 201.5 376 C202.08 376.66 202.66 377.33 203.26 378.01 C204.4 379.31 205.52 380.62 206.64 381.93 C213.13 389.49 219.89 396.72 228.01 402.52 C230.25 404.19 232.3 406 234.38 407.88 C239.09 412.13 243.99 416.1 249 420 C249.43 420.34 249.43 420.34 251.63 422.08 C259.93 428.5 268.73 434.01 277.64 439.53 C279.85 440.91 282.05 442.3 284.25 443.71 C292.95 449.25 301.82 454.28 311 459 C311 459.66 311 460.32 311 461 C282.63 461.12 254.25 461.21 225.88 461.26 C212.7 461.28 199.53 461.32 186.35 461.38 C174.86 461.43 163.37 461.46 151.88 461.47 C145.8 461.48 139.72 461.49 133.65 461.53 C127.91 461.56 122.18 461.57 116.44 461.57 C114.35 461.57 112.26 461.58 110.17 461.6 C84.79 461.82 62.99 454.7 43 439 C41.96 438.2 40.93 437.4 39.86 436.57 C35.01 432.72 30.75 428.97 27 424 C25.69 422.37 24.38 420.75 23.06 419.12 C21.71 417.42 20.35 415.71 19 414 C18.46 413.32 17.92 412.63 17.36 411.93 C11 403.68 6.15 394.61 1.52 385.31 C1.03 384.33 0.54 383.35 0.03 382.33 C-1 380.27 -2.03 378.21 -3.06 376.14 C-4.62 373.01 -6.19 369.87 -7.77 366.74 C-8.77 364.72 -9.78 362.71 -10.79 360.69 C-11.25 359.76 -11.72 358.84 -12.19 357.89 C-14.3 353.66 -16.27 349.43 -17.98 345.03 C-20.15 339.47 -22.8 334.19 -25.5 328.88 C-26.02 327.85 -26.54 326.82 -27.07 325.76 C-28.71 322.51 -30.35 319.25 -32 316 C-34.17 311.71 -36.34 307.42 -38.5 303.12 C-38.99 302.16 -39.48 301.19 -39.99 300.19 C-42.61 295 -44.94 289.79 -47.04 284.36 C-48.55 280.64 -50.36 277.08 -52.19 273.5 C-52.57 272.74 -52.96 271.98 -53.35 271.19 C-54.56 268.79 -55.78 266.4 -57 264 C-58.61 260.84 -60.21 257.67 -61.81 254.5 C-61.99 254.15 -61.99 254.15 -62.91 252.37 C-64.77 248.67 -66.44 244.97 -67.95 241.11 C-70.02 235.83 -72.49 230.8 -75.06 225.75 C-75.54 224.81 -76.01 223.87 -76.5 222.91 C-77.99 219.93 -79.5 216.97 -81 214 C-82.98 210.09 -84.96 206.17 -86.94 202.25 C-87.16 201.81 -87.16 201.81 -88.3 199.58 C-90.8 194.61 -92.99 189.6 -95.02 184.4 C-96.57 180.59 -98.46 176.97 -100.36 173.32 C-101.18 171.74 -101.99 170.15 -102.8 168.57 C-104.06 166.11 -105.33 163.66 -106.6 161.21 C-107.85 158.82 -109.08 156.41 -110.3 154.01 C-110.49 153.65 -110.49 153.65 -111.47 151.8 C-113 148.78 -114.03 146.57 -113.84 143.16 C-112.71 140.27 -111.04 138.33 -109 136 C-101.3 126.45 -101.3 126.45 -98 122 C-95.12 118.12 -92.11 114.34 -89.07 110.58 C-87.7 108.86 -86.32 107.15 -84.96 105.42 C-81.86 101.52 -78.74 97.66 -75.44 93.94 C-72.36 90.47 -69.5 86.86 -66.68 83.18 C-64.81 80.76 -62.91 78.38 -61 76 C-60.39 75.23 -59.77 74.47 -59.14 73.68 C-33 41 -33 41 -31 38.51 C-29.65 36.82 -28.31 35.13 -26.96 33.43 C-23.87 29.52 -20.75 25.67 -17.44 21.94 C-14.32 18.42 -11.43 14.77 -8.57 11.04 C-6.74 8.67 -4.87 6.34 -3 4 C-2.46 3.24 -1.93 2.47 -1.38 1.69 C-0.92 1.13 -0.47 0.57 0 0 Z " fill="#388bfd" transform="translate(1024,591)"/></g>
<text x="172" y="99" font-family="Segoe UI,Helvetica,Arial,sans-serif" font-size="84" font-weight="800" fill="#0d1117" letter-spacing="-1.5">Realpha</text>
</svg>